<svg xmlns="http://www.w3.org/2000/svg" width="1200" height="320" aria-labelledby="title description" role="img" viewBox="0 0 1200 320"><title id="title">Yapshire</title><desc id="description">一条安静的街，几个聊得来的朋友。像素咖啡馆、打招呼的邻居和午后阳光下的树。</desc><rect width="1200" height="320" fill="#203837"/><g shape-rendering="crispEdges"><path fill="#50705d" d="M0 0h1200v4H0z M0 316h1200v4H0z"/><path fill="#f6edcf" d="M0 0h1v1h-1z M4 0h1v1h-1z M0 1h1v1h-1z M4 1h1v1h-1z M1 2h1v1h-1z M3 2h1v1h-1z M2 3h1v1h-1z M2 4h1v1h-1z M2 5h1v1h-1z M2 6h1v1h-1z M7 0h1v1h-1z M8 0h1v1h-1z M9 0h1v1h-1z M6 1h1v1h-1z M10 1h1v1h-1z M6 2h1v1h-1z M10 2h1v1h-1z M6 3h1v1h-1z M7 3h1v1h-1z M8 3h1v1h-1z M9 3h1v1h-1z M10 3h1v1h-1z M6 4h1v1h-1z M10 4h1v1h-1z M6 5h1v1h-1z M10 5h1v1h-1z M6 6h1v1h-1z M10 6h1v1h-1z M12 0h1v1h-1z M13 0h1v1h-1z M14 0h1v1h-1z M15 0h1v1h-1z M12 1h1v1h-1z M16 1h1v1h-1z M12 2h1v1h-1z M16 2h1v1h-1z M12 3h1v1h-1z M13 3h1v1h-1z M14 3h1v1h-1z M15 3h1v1h-1z M12 4h1v1h-1z M12 5h1v1h-1z M12 6h1v1h-1z M19 0h1v1h-1z M20 0h1v1h-1z M21 0h1v1h-1z M22 0h1v1h-1z M18 1h1v1h-1z M18 2h1v1h-1z M19 3h1v1h-1z M20 3h1v1h-1z M21 3h1v1h-1z M22 4h1v1h-1z M22 5h1v1h-1z M18 6h1v1h-1z M19 6h1v1h-1z M20 6h1v1h-1z M21 6h1v1h-1z M24 0h1v1h-1z M28 0h1v1h-1z M24 1h1v1h-1z M28 1h1v1h-1z M24 2h1v1h-1z M28 2h1v1h-1z M24 3h1v1h-1z M25 3h1v1h-1z M26 3h1v1h-1z M27 3h1v1h-1z M28 3h1v1h-1z M24 4h1v1h-1z M28 4h1v1h-1z M24 5h1v1h-1z M28 5h1v1h-1z M24 6h1v1h-1z M28 6h1v1h-1z M30 0h1v1h-1z M31 0h1v1h-1z M32 0h1v1h-1z M33 0h1v1h-1z M34 0h1v1h-1z M32 1h1v1h-1z M32 2h1v1h-1z M32 3h1v1h-1z M32 4h1v1h-1z M32 5h1v1h-1z M30 6h1v1h-1z M31 6h1v1h-1z M32 6h1v1h-1z M33 6h1v1h-1z M34 6h1v1h-1z M36 0h1v1h-1z M37 0h1v1h-1z M38 0h1v1h-1z M39 0h1v1h-1z M36 1h1v1h-1z M40 1h1v1h-1z M36 2h1v1h-1z M40 2h1v1h-1z M36 3h1v1h-1z M37 3h1v1h-1z M38 3h1v1h-1z M39 3h1v1h-1z M36 4h1v1h-1z M38 4h1v1h-1z M36 5h1v1h-1z M39 5h1v1h-1z M36 6h1v1h-1z M40 6h1v1h-1z M42 0h1v1h-1z M43 0h1v1h-1z M44 0h1v1h-1z M45 0h1v1h-1z M46 0h1v1h-1z M42 1h1v1h-1z M42 2h1v1h-1z M42 3h1v1h-1z M43 3h1v1h-1z M44 3h1v1h-1z M45 3h1v1h-1z M42 4h1v1h-1z M42 5h1v1h-1z M42 6h1v1h-1z M43 6h1v1h-1z M44 6h1v1h-1z M45 6h1v1h-1z M46 6h1v1h-1z" transform="translate(52 108) scale(9)"/><rect width="184" height="36" x="52" y="248" fill="#f6edcf"/><rect width="520" height="248" x="644" y="36" fill="#35534e"/><path fill="#486752" d="M644 232h40v-20h52v-16h72v12h56v16h40v-12h52v-20h60v8h68v20h80v64H644z"/><path fill="#e7ce8e" d="M1072 56h40v8h12v12h8v36h-8v12h-12v8h-40v-8h-12v-12h-8V76h8V64h12z"/><path fill="#70867a" d="M928 68h48v8h28v8h20v12H904V84h24z"/><rect width="176" height="116" x="696" y="156" fill="#d8c28e"/><rect width="152" height="12" x="708" y="152" fill="#745649"/><rect width="20" height="44" x="840" y="96" fill="#94694c"/><rect width="28" height="12" x="836" y="88" fill="#bf9167"/><path fill="#ad6e4f" d="M716 116h132v12h12v12h12v12h12v12H684v-12h12v-16h20z"/><path fill="#cd9570" d="M716 120h128v4H716z M708 136h148v4H708z M696 152h176v4H696z"/><rect width="176" height="28" x="696" y="164" fill="#3f6654"/><rect width="184" height="12" x="692" y="192" fill="#ead5a4"/><path fill="#65826c" d="M712 192h20v12h-20z M752 192h20v12h-20z M792 192h20v12h-20z M832 192h20v12h-20z"/><rect width="48" height="64" x="712" y="208" fill="#66775a"/><rect width="32" height="28" x="720" y="216" fill="#e4c782"/><rect width="4" height="4" x="748" y="252" fill="#edd69b"/><rect width="68" height="44" x="784" y="208" fill="#947253"/><rect width="60" height="36" x="788" y="212" fill="#f2d495"/><path fill="#b38b60" d="M816 212h4v36h-4z M788 228h60v4h-60z"/><rect width="68" height="12" x="784" y="248" fill="#ae7e5b"/><path fill="#5f7d59" d="M788 244h8v8h-8z M808 244h8v8h-8z M828 244h8v8h-8z M844 244h8v8h-8z"/><rect width="16" height="92" x="1100" y="184" fill="#8d7350"/><path fill="#4e7256" d="M1064 140h20v-12h40v12h16v16h12v44h-12v16h-60v-12h-20v-48h4z"/><path fill="#7e925f" d="M1072 140h20v-8h28v12h16v20h-8v12h-48v-12h-12v-16h4z"/><path fill="#6d885b" d="M1068 180h16v12h24v8h-12v8h-20v-8h-8z M1124 180h16v16h-16z"/><path fill="#adb275" d="M1084 152h8v4h-8z M1116 144h4v4h-4z M1096 164h4v4h-4z"/><g transform="translate(928 216) scale(3)"><path fill="#594b3c" d="M1 3h2V1h6v2h2v6H1z"/><path fill="#e8c098" d="M3 4h7v6H3z"/><path fill="#c07858" d="M4 10h5v2h2v6H2v-6h2z"/><path fill="#e8c098" d="M0 12h2v5H0z M11 12h2v5h-2z"/><path fill="#384f49" d="M2 18h4v2H1v-1h1z M8 18h3v2H8z"/><rect width="1" height="1" x="8" y="6" fill="#39433c"/></g><g transform="translate(1004 216) scale(3)"><path fill="#444d3c" d="M2 2h7v1h2v6H1V3h1z"/><path fill="#dbb48e" d="M2 4h7v6H2z"/><path fill="#81975f" d="M3 10h5v2h2v6H1v-6h2z"/><path fill="#dbb48e" d="M0 12h1v5H0z M10 12h2v5h-2z"/><path fill="#384f49" d="M1 18h4v2H1z M7 18h3v1h1v1H7z"/><rect width="1" height="1" x="3" y="6" fill="#39433c"/></g><path fill="#628064" d="M920 160h116v36h-80v12h-8v-12h-28z"/><path fill="#f7edcf" d="M924 164h108v28h-80v8h-4v-8h-24z"/><rect width="520" height="8" x="644" y="276" fill="#50705d"/><path fill="#50705d" d="M664 284h52v4h-52z M772 284h36v4h-36z M916 284h76v4h-76z M1048 284h48v4h-48z"/></g><g font-family="'Courier New', monospace"><path fill="#b2be9b" d="M54.333333333333336 55.5H55.5V59.0H56.666666666666664V60.166666666666664H55.5V68.33333333333333H54.333333333333336ZM57.833333333333336 55.5H63.66666666666667V60.166666666666664H64.83333333333333V63.666666666666664H63.66666666666667V64.83333333333333H62.5V63.666666666666664H59.0V64.83333333333333H57.833333333333336V63.666666666666664H56.666666666666664V60.166666666666664H57.833333333333336ZM59.0 56.666666666666664V57.83333333333333H62.5V56.666666666666664ZM52.0 57.83333333333333H53.166666666666664V62.5H52.0ZM59.0 59.0V60.166666666666664H62.5V59.0ZM59.0 61.333333333333336H57.833333333333336V62.5H59.0ZM61.333333333333336 61.333333333333336H60.16666666666667V62.5H61.333333333333336ZM63.66666666666667 61.333333333333336H62.5V62.5H63.66666666666667ZM59.0 64.83333333333333H60.16666666666667V66.0H59.0ZM61.333333333333336 64.83333333333333H62.5V66.0H61.333333333333336ZM60.16666666666667 66.0H61.333333333333336V67.16666666666667H60.16666666666667ZM56.666666666666664 67.16666666666667H60.16666666666667V68.33333333333333H56.666666666666664ZM61.333333333333336 67.16666666666667H64.83333333333333V68.33333333333333H61.333333333333336ZM66.0 55.5H78.83333333333333V56.666666666666664H73.0V68.33333333333333H71.83333333333333V56.666666666666664H66.0ZM74.16666666666667 60.166666666666664H75.33333333333333V61.333333333333336H74.16666666666667ZM75.33333333333333 61.333333333333336H76.5V62.5H75.33333333333333ZM76.5 62.5H77.66666666666667V63.666666666666664H76.5ZM85.83333333333333 55.5H87.0V56.666666666666664H91.66666666666667V57.83333333333333H87.0V61.333333333333336H88.16666666666667V60.166666666666664H89.33333333333333V61.333333333333336H92.83333333333333V62.5H88.16666666666667V63.666666666666664H87.0V68.33333333333333H85.83333333333333V63.666666666666664H84.66666666666667V62.5H80.0V61.333333333333336H83.5V60.166666666666664H84.66666666666667V61.333333333333336H85.83333333333333V57.83333333333333H81.16666666666667V56.666666666666664H85.83333333333333ZM82.33333333333333 59.0H83.5V60.166666666666664H82.33333333333333ZM89.33333333333333 59.0H90.5V60.166666666666664H89.33333333333333ZM83.5 63.666666666666664H84.66666666666667V64.83333333333333H83.5ZM88.16666666666667 63.666666666666664H89.33333333333333V64.83333333333333H88.16666666666667ZM82.33333333333333 64.83333333333333H83.5V66.0H82.33333333333333ZM89.33333333333333 64.83333333333333H90.5V66.0H89.33333333333333ZM80.0 66.0H82.33333333333333V67.16666666666667H80.0ZM90.5 66.0H92.83333333333333V67.16666666666667H90.5ZM96.33333333333333 63.666666666666664H98.66666666666667V67.16666666666667H97.5V66.0H96.33333333333333ZM96.33333333333333 67.16666666666667H97.5V68.33333333333333H96.33333333333333ZM110.33333333333333 55.5H111.5V57.83333333333333H112.66666666666667V59.0H111.5V61.333333333333336H112.66666666666667V62.5H111.5V68.33333333333333H108.0V67.16666666666667H110.33333333333333V63.666666666666664H108.0V62.5H110.33333333333333V59.0H108.0V57.83333333333333H110.33333333333333ZM113.83333333333333 55.5H120.83333333333333V56.666666666666664H118.5V68.33333333333333H115.0V67.16666666666667H117.33333333333333V56.666666666666664H113.83333333333333ZM127.83333333333333 55.5H129.0V56.666666666666664H127.83333333333333ZM126.66666666666667 56.666666666666664H127.83333333333333V57.83333333333333H126.66666666666667ZM129.0 56.666666666666664H130.16666666666666V57.83333333333333H129.0ZM125.5 57.83333333333333H126.66666666666667V59.0H125.5ZM130.16666666666666 57.83333333333333H131.33333333333334V59.0H130.16666666666666ZM124.33333333333333 59.0H125.5V60.166666666666664H124.33333333333333ZM131.33333333333334 59.0H132.5V60.166666666666664H131.33333333333334ZM122.0 60.166666666666664H124.33333333333333V61.333333333333336H122.0ZM127.83333333333333 60.166666666666664H129.0V68.33333333333333H127.83333333333333ZM132.5 60.166666666666664H134.83333333333334V61.333333333333336H132.5ZM137.16666666666666 55.5H138.33333333333334V57.83333333333333H139.5V59.0H138.33333333333334V61.333333333333336H139.5V62.5H138.33333333333334V68.33333333333333H136.0V67.16666666666667H137.16666666666666V63.666666666666664H136.0V62.5H137.16666666666666V59.0H136.0V57.83333333333333H137.16666666666666ZM140.66666666666666 55.5H148.83333333333334V61.333333333333336H145.33333333333334V60.166666666666664H147.66666666666666V56.666666666666664H144.16666666666666V59.0H143.0V56.666666666666664H140.66666666666666ZM141.83333333333334 59.0H143.0V60.166666666666664H141.83333333333334ZM140.66666666666666 60.166666666666664H141.83333333333334V61.333333333333336H140.66666666666666ZM140.66666666666666 62.5H148.83333333333334V68.33333333333333H140.66666666666666ZM141.83333333333334 63.666666666666664V67.16666666666667H147.66666666666666V63.666666666666664ZM159.33333333333334 55.5H162.83333333333334V56.666666666666664H159.33333333333334ZM150.0 56.666666666666664H153.5V66.0H150.0ZM152.33333333333334 57.83333333333333H151.16666666666666V64.83333333333333H152.33333333333334ZM154.66666666666666 56.666666666666664H159.33333333333334V62.5H162.83333333333334V63.666666666666664H159.33333333333334V68.33333333333333H155.83333333333334V67.16666666666667H158.16666666666666V63.666666666666664H154.66666666666666V62.5H158.16666666666666V57.83333333333333H154.66666666666666ZM154.66666666666666 59.0H155.83333333333334V60.166666666666664H154.66666666666666ZM161.66666666666666 59.0H162.83333333333334V60.166666666666664H161.66666666666666ZM155.83333333333334 60.166666666666664H157.0V61.333333333333336H155.83333333333334ZM160.5 60.166666666666664H161.66666666666666V61.333333333333336H160.5ZM166.33333333333334 63.666666666666664H168.66666666666666V64.83333333333333H166.33333333333334ZM165.16666666666666 64.83333333333333H166.33333333333334V67.16666666666667H165.16666666666666ZM168.66666666666666 64.83333333333333H169.83333333333334V67.16666666666667H168.66666666666666ZM166.33333333333334 67.16666666666667H168.66666666666666V68.33333333333333H166.33333333333334Z" aria-label="慢下来，打个招呼。"/><path fill="#b2be9b" d="M52.0 205.33333333333334H70.33333333333333V207.0H52.0ZM77.0 197.0H78.66666666666667V198.66666666666666H87.0V202.0H85.33333333333333V200.33333333333334H77.0ZM75.33333333333333 200.33333333333334H77.0V202.0H75.33333333333333ZM72.0 202.0H75.33333333333333V203.66666666666666H72.0ZM77.0 202.0H78.66666666666667V203.66666666666666H77.0ZM83.66666666666667 202.0H85.33333333333333V203.66666666666666H83.66666666666667ZM78.66666666666667 203.66666666666666H83.66666666666667V205.33333333333334H78.66666666666667ZM72.0 205.33333333333334H78.66666666666667V207.0H72.0ZM83.66666666666667 205.33333333333334H90.33333333333333V207.0H83.66666666666667ZM80.33333333333333 207.0H82.0V208.66666666666666H90.33333333333333V210.33333333333334H85.33333333333333V212.0H83.66666666666667V210.33333333333334H82.0V215.33333333333334H80.33333333333333V210.33333333333334H78.66666666666667V212.0H77.0V210.33333333333334H72.0V208.66666666666666H80.33333333333333ZM75.33333333333333 212.0H77.0V213.66666666666666H75.33333333333333ZM85.33333333333333 212.0H87.0V213.66666666666666H85.33333333333333ZM72.0 213.66666666666666H75.33333333333333V215.33333333333334H72.0ZM87.0 213.66666666666666H90.33333333333333V215.33333333333334H87.0ZM100.33333333333333 197.0H102.0V198.66666666666666H110.33333333333333V202.0H108.66666666666667V200.33333333333334H93.66666666666667V202.0H92.0V198.66666666666666H100.33333333333333ZM98.66666666666667 202.0H100.33333333333333V205.33333333333334H110.33333333333333V207.0H107.0V210.33333333333334H105.33333333333333V207.0H98.66666666666667V208.66666666666666H97.0V207.0H92.0V205.33333333333334H98.66666666666667ZM95.33333333333333 208.66666666666666H97.0V210.33333333333334H95.33333333333333ZM97.0 210.33333333333334H98.66666666666667V212.0H97.0ZM103.66666666666667 210.33333333333334H105.33333333333333V212.0H103.66666666666667ZM98.66666666666667 212.0H103.66666666666667V213.66666666666666H98.66666666666667ZM92.0 213.66666666666666H98.66666666666667V215.33333333333334H92.0ZM103.66666666666667 213.66666666666666H110.33333333333333V215.33333333333334H103.66666666666667ZM115.33333333333333 197.0H117.0V198.66666666666666H120.33333333333333V200.33333333333334H117.0V202.0H120.33333333333333V203.66666666666666H117.0V205.33333333333334H125.33333333333333V203.66666666666666H122.0V200.33333333333334H123.66666666666667V202.0H127.0V200.33333333333334H123.66666666666667V197.0H125.33333333333333V198.66666666666666H128.66666666666666V202.0H130.33333333333334V210.33333333333334H127.0V215.33333333333334H123.66666666666667V213.66666666666666H125.33333333333333V210.33333333333334H122.0V208.66666666666666H125.33333333333333V207.0H120.33333333333333V215.33333333333334H118.66666666666667V213.66666666666666H115.33333333333333V215.33333333333334H113.66666666666667V207.0H112.0V205.33333333333334H115.33333333333333V203.66666666666666H112.0V202.0H115.33333333333333V200.33333333333334H112.0V198.66666666666666H115.33333333333333ZM128.66666666666666 203.66666666666666H127.0V205.33333333333334H128.66666666666666ZM115.33333333333333 207.0V208.66666666666666H118.66666666666667V207.0ZM128.66666666666666 207.0H127.0V208.66666666666666H128.66666666666666ZM115.33333333333333 210.33333333333334V212.0H118.66666666666667V210.33333333333334ZM135.33333333333334 197.0H137.0V198.66666666666666H135.33333333333334ZM142.0 197.0H143.66666666666666V200.33333333333334H150.33333333333334V213.66666666666666H148.66666666666666V202.0H142.0ZM133.66666666666666 198.66666666666666H135.33333333333334V200.33333333333334H140.33333333333334V202.0H142.0V203.66666666666666H140.33333333333334V215.33333333333334H132.0V200.33333333333334H133.66666666666666ZM133.66666666666666 202.0V207.0H138.66666666666666V202.0ZM143.66666666666666 205.33333333333334H145.33333333333334V207.0H143.66666666666666ZM133.66666666666666 208.66666666666666V213.66666666666666H138.66666666666666V208.66666666666666ZM145.33333333333334 207.0H147.0V210.33333333333334H145.33333333333334ZM145.33333333333334 213.66666666666666H148.66666666666666V215.33333333333334H145.33333333333334ZM155.33333333333334 197.0H157.0V198.66666666666666H155.33333333333334ZM160.33333333333334 197.0H162.0V198.66666666666666H165.33333333333334V200.33333333333334H162.0V203.66666666666666H165.33333333333334V205.33333333333334H157.0V203.66666666666666H160.33333333333334V200.33333333333334H157.0V198.66666666666666H160.33333333333334ZM165.33333333333334 197.0H170.33333333333334V198.66666666666666H165.33333333333334ZM153.66666666666666 198.66666666666666H155.33333333333334V200.33333333333334H153.66666666666666ZM152.0 200.33333333333334H153.66666666666666V202.0H152.0ZM155.33333333333334 202.0H157.0V203.66666666666666H155.33333333333334ZM165.33333333333334 202.0H170.33333333333334V203.66666666666666H168.66666666666666V215.33333333333334H165.33333333333334V213.66666666666666H167.0V203.66666666666666H165.33333333333334ZM153.66666666666666 203.66666666666666H155.33333333333334V215.33333333333334H153.66666666666666V207.0H152.0V205.33333333333334H153.66666666666666ZM160.33333333333334 207.0H162.0V208.66666666666666H165.33333333333334V210.33333333333334H162.0V212.0H165.33333333333334V213.66666666666666H160.33333333333334V210.33333333333334H157.0V208.66666666666666H160.33333333333334ZM157.0 213.66666666666666H160.33333333333334V215.33333333333334H157.0ZM175.33333333333334 208.66666666666666H178.66666666666666V213.66666666666666H177.0V212.0H175.33333333333334ZM175.33333333333334 213.66666666666666H177.0V215.33333333333334H175.33333333333334ZM195.33333333333334 197.0H205.33333333333334V213.66666666666666H208.66666666666666V210.33333333333334H210.33333333333334V215.33333333333334H203.66666666666666V198.66666666666666H197.0V210.33333333333334H195.33333333333334ZM193.66666666666666 210.33333333333334H195.33333333333334V213.66666666666666H193.66666666666666ZM192.0 213.66666666666666H193.66666666666666V215.33333333333334H192.0ZM220.33333333333334 197.0H222.0V198.66666666666666H220.33333333333334ZM218.66666666666666 198.66666666666666H220.33333333333334V200.33333333333334H218.66666666666666ZM222.0 198.66666666666666H223.66666666666666V200.33333333333334H222.0ZM217.0 200.33333333333334H218.66666666666666V202.0H217.0ZM223.66666666666666 200.33333333333334H225.33333333333334V202.0H223.66666666666666ZM215.33333333333334 202.0H217.0V203.66666666666666H215.33333333333334ZM225.33333333333334 202.0H227.0V203.66666666666666H225.33333333333334ZM212.0 203.66666666666666H215.33333333333334V205.33333333333334H212.0ZM220.33333333333334 203.66666666666666H222.0V215.33333333333334H220.33333333333334ZM227.0 203.66666666666666H230.33333333333334V205.33333333333334H227.0ZM232.0 197.0H238.66666666666666V198.66666666666666H237.0V213.66666666666666H240.33333333333334V215.33333333333334H235.33333333333334V212.0H233.66666666666666V213.66666666666666H232.0ZM235.33333333333334 198.66666666666666H233.66666666666666V200.33333333333334H235.33333333333334ZM242.0 197.0H243.66666666666666V198.66666666666666H242.0ZM238.66666666666666 198.66666666666666H242.0V200.33333333333334H240.33333333333334V208.66666666666666H242.0V200.33333333333334H243.66666666666666V212.0H242.0V210.33333333333334H240.33333333333334V212.0H238.66666666666666ZM245.33333333333334 198.66666666666666H250.33333333333334V212.0H247.0V215.33333333333334H245.33333333333334ZM248.66666666666666 200.33333333333334H247.0V210.33333333333334H248.66666666666666ZM235.33333333333334 202.0H233.66666666666666V205.33333333333334H235.33333333333334ZM235.33333333333334 207.0H233.66666666666666V210.33333333333334H235.33333333333334ZM240.33333333333334 212.0H242.0V213.66666666666666H240.33333333333334ZM255.33333333333334 197.0H257.0V198.66666666666666H255.33333333333334ZM258.6666666666667 197.0H268.6666666666667V205.33333333333334H258.6666666666667ZM260.3333333333333 198.66666666666666V200.33333333333334H267.0V198.66666666666666ZM253.66666666666666 198.66666666666666H255.33333333333334V200.33333333333334H253.66666666666666ZM252.0 200.33333333333334H253.66666666666666V202.0H252.0ZM260.3333333333333 202.0V203.66666666666666H267.0V202.0ZM255.33333333333334 202.0H257.0V203.66666666666666H255.33333333333334ZM253.66666666666666 203.66666666666666H255.33333333333334V215.33333333333334H253.66666666666666V207.0H252.0V205.33333333333334H253.66666666666666ZM257.0 207.0H270.3333333333333V208.66666666666666H267.0V210.33333333333334H270.3333333333333V212.0H267.0V215.33333333333334H263.6666666666667V213.66666666666666H265.3333333333333V212.0H260.3333333333333V213.66666666666666H258.6666666666667V212.0H257.0V210.33333333333334H265.3333333333333V208.66666666666666H257.0ZM260.3333333333333 213.66666666666666H262.0V215.33333333333334H260.3333333333333ZM280.3333333333333 197.0H282.0V198.66666666666666H288.6666666666667V200.33333333333334H282.0V205.33333333333334H283.6666666666667V203.66666666666666H285.3333333333333V205.33333333333334H290.3333333333333V207.0H283.6666666666667V208.66666666666666H282.0V215.33333333333334H280.3333333333333V208.66666666666666H278.6666666666667V207.0H272.0V205.33333333333334H277.0V203.66666666666666H278.6666666666667V205.33333333333334H280.3333333333333V200.33333333333334H273.6666666666667V198.66666666666666H280.3333333333333ZM275.3333333333333 202.0H277.0V203.66666666666666H275.3333333333333ZM285.3333333333333 202.0H287.0V203.66666666666666H285.3333333333333ZM277.0 208.66666666666666H278.6666666666667V210.33333333333334H277.0ZM283.6666666666667 208.66666666666666H285.3333333333333V210.33333333333334H283.6666666666667ZM275.3333333333333 210.33333333333334H277.0V212.0H275.3333333333333ZM285.3333333333333 210.33333333333334H287.0V212.0H285.3333333333333ZM272.0 212.0H275.3333333333333V213.66666666666666H272.0ZM287.0 212.0H290.3333333333333V213.66666666666666H287.0ZM295.3333333333333 197.0H297.0V198.66666666666666H295.3333333333333ZM302.0 197.0H303.6666666666667V200.33333333333334H310.3333333333333V213.66666666666666H308.6666666666667V202.0H302.0ZM293.6666666666667 198.66666666666666H295.3333333333333V200.33333333333334H300.3333333333333V202.0H302.0V203.66666666666666H300.3333333333333V215.33333333333334H292.0V200.33333333333334H293.6666666666667ZM293.6666666666667 202.0V207.0H298.6666666666667V202.0ZM303.6666666666667 205.33333333333334H305.3333333333333V207.0H303.6666666666667ZM293.6666666666667 208.66666666666666V213.66666666666666H298.6666666666667V208.66666666666666ZM305.3333333333333 207.0H307.0V210.33333333333334H305.3333333333333ZM305.3333333333333 213.66666666666666H308.6666666666667V215.33333333333334H305.3333333333333ZM313.6666666666667 197.0H320.3333333333333V215.33333333333334H317.0V213.66666666666666H318.6666666666667V208.66666666666666H315.3333333333333V213.66666666666666H313.6666666666667ZM315.3333333333333 198.66666666666666V202.0H318.6666666666667V198.66666666666666ZM323.6666666666667 197.0H330.3333333333333V215.33333333333334H327.0V213.66666666666666H328.6666666666667V208.66666666666666H325.3333333333333V213.66666666666666H323.6666666666667ZM325.3333333333333 198.66666666666666V202.0H328.6666666666667V198.66666666666666ZM315.3333333333333 203.66666666666666V207.0H318.6666666666667V203.66666666666666ZM325.3333333333333 203.66666666666666V207.0H328.6666666666667V203.66666666666666ZM312.0 213.66666666666666H313.6666666666667V215.33333333333334H312.0ZM322.0 213.66666666666666H323.6666666666667V215.33333333333334H322.0ZM338.6666666666667 197.0H340.3333333333333V200.33333333333334H350.3333333333333V202.0H338.6666666666667V205.33333333333334H348.6666666666667V208.66666666666666H347.0V207.0H340.3333333333333V208.66666666666666H338.6666666666667V207.0H337.0V202.0H332.0V200.33333333333334H338.6666666666667ZM335.3333333333333 207.0H337.0V210.33333333333334H335.3333333333333ZM340.3333333333333 208.66666666666666H342.0V210.33333333333334H340.3333333333333ZM345.3333333333333 208.66666666666666H347.0V210.33333333333334H345.3333333333333ZM333.6666666666667 210.33333333333334H335.3333333333333V213.66666666666666H333.6666666666667ZM342.0 210.33333333333334H345.3333333333333V212.0H342.0ZM338.6666666666667 212.0H342.0V213.66666666666666H338.6666666666667ZM345.3333333333333 212.0H347.0V213.66666666666666H345.3333333333333ZM332.0 213.66666666666666H333.6666666666667V215.33333333333334H332.0ZM335.3333333333333 213.66666666666666H338.6666666666667V215.33333333333334H335.3333333333333ZM347.0 213.66666666666666H350.3333333333333V215.33333333333334H347.0ZM355.3333333333333 208.66666666666666H358.6666666666667V210.33333333333334H355.3333333333333ZM353.6666666666667 210.33333333333334H355.3333333333333V213.66666666666666H353.6666666666667ZM358.6666666666667 210.33333333333334H360.3333333333333V213.66666666666666H358.6666666666667ZM355.3333333333333 213.66666666666666H358.6666666666667V215.33333333333334H355.3333333333333Z" aria-label="一条安静的街，几个聊得来的朋友。"/><path fill="#203837" d="M77.33333333333333 260.0H89.33333333333333V264.0H78.66666666666667V265.3333333333333H90.66666666666667V273.3333333333333H89.33333333333333V266.6666666666667H78.66666666666667V273.3333333333333H77.33333333333333ZM78.66666666666667 261.3333333333333V262.6666666666667H88.0V261.3333333333333ZM80.0 268.0H86.66666666666667V273.3333333333333H80.0ZM81.33333333333333 269.3333333333333V272.0H85.33333333333333V269.3333333333333ZM76.0 273.3333333333333H77.33333333333333V274.6666666666667H76.0ZM86.66666666666667 273.3333333333333H89.33333333333333V274.6666666666667H86.66666666666667ZM93.33333333333333 260.0H94.66666666666667V264.0H96.0V265.3333333333333H94.66666666666667V269.3333333333333H96.0V270.6666666666667H94.66666666666667V272.0H92.0V270.6666666666667H93.33333333333333V265.3333333333333H92.0V264.0H93.33333333333333ZM102.66666666666667 260.0H104.0V262.6666666666667H105.33333333333333V260.0H106.66666666666667V264.0H104.0V269.3333333333333H102.66666666666667V264.0H96.0V262.6666666666667H102.66666666666667ZM97.33333333333333 265.3333333333333H101.33333333333333V270.6666666666667H97.33333333333333ZM100.0 266.6666666666667H98.66666666666667V269.3333333333333H100.0ZM105.33333333333333 265.3333333333333H106.66666666666667V269.3333333333333H105.33333333333333ZM104.0 269.3333333333333H105.33333333333333V272.0H104.0ZM98.66666666666667 272.0H101.33333333333333V273.3333333333333H98.66666666666667ZM102.66666666666667 272.0H104.0V273.3333333333333H102.66666666666667ZM105.33333333333333 272.0H106.66666666666667V274.6666666666667H105.33333333333333ZM96.0 273.3333333333333H98.66666666666667V274.6666666666667H96.0ZM101.33333333333333 273.3333333333333H102.66666666666667V274.6666666666667H101.33333333333333ZM108.0 260.0H122.66666666666667V274.6666666666667H118.66666666666667V273.3333333333333H121.33333333333333V261.3333333333333H109.33333333333333V270.6666666666667H110.66666666666667V272.0H109.33333333333333V274.6666666666667H108.0ZM113.33333333333333 262.6666666666667H114.66666666666667V265.3333333333333H113.33333333333333ZM118.66666666666667 262.6666666666667H120.0V265.3333333333333H118.66666666666667ZM110.66666666666667 264.0H112.0V265.3333333333333H110.66666666666667ZM116.0 264.0H117.33333333333333V265.3333333333333H116.0ZM112.0 265.3333333333333H113.33333333333333V268.0H112.0ZM117.33333333333333 265.3333333333333H118.66666666666667V268.0H117.33333333333333ZM110.66666666666667 268.0H112.0V270.6666666666667H110.66666666666667ZM113.33333333333333 268.0H114.66666666666667V270.6666666666667H113.33333333333333ZM116.0 268.0H117.33333333333333V270.6666666666667H116.0ZM118.66666666666667 268.0H120.0V270.6666666666667H118.66666666666667ZM114.66666666666667 270.6666666666667H116.0V272.0H114.66666666666667ZM134.66666666666666 264.0H136.0V266.6666666666667H138.66666666666666V268.0H136.0V270.6666666666667H134.66666666666666V268.0H132.0V266.6666666666667H134.66666666666666ZM153.33333333333334 260.0H154.66666666666666V262.6666666666667H162.66666666666666V264.0H153.33333333333334V266.6666666666667H152.0V264.0H148.0V262.6666666666667H153.33333333333334ZM157.33333333333334 265.3333333333333H158.66666666666666V268.0H162.66666666666666V269.3333333333333H158.66666666666666V273.3333333333333H162.66666666666666V274.6666666666667H153.33333333333334V273.3333333333333H157.33333333333334V269.3333333333333H153.33333333333334V268.0H157.33333333333334ZM150.66666666666666 266.6666666666667H152.0V274.6666666666667H150.66666666666666V269.3333333333333H149.33333333333334V268.0H150.66666666666666ZM148.0 269.3333333333333H149.33333333333334V270.6666666666667H148.0ZM166.66666666666666 260.0H168.0V262.6666666666667H166.66666666666666ZM173.33333333333334 260.0H174.66666666666666V262.6666666666667H177.33333333333334V261.3333333333333H178.66666666666666V264.0H174.66666666666666V266.6666666666667H178.66666666666666V268.0H174.66666666666666V270.6666666666667H173.33333333333334V269.3333333333333H170.66666666666666V268.0H173.33333333333334V265.3333333333333H170.66666666666666V264.0H173.33333333333334ZM176.0 260.0H177.33333333333334V261.3333333333333H176.0ZM165.33333333333334 262.6666666666667H166.66666666666666V264.0H165.33333333333334ZM164.0 264.0H165.33333333333334V265.3333333333333H168.0V268.0H166.66666666666666V266.6666666666667H164.0ZM168.0 264.0H169.33333333333334V265.3333333333333H168.0ZM165.33333333333334 268.0H166.66666666666666V269.3333333333333H169.33333333333334V270.6666666666667H164.0V269.3333333333333H165.33333333333334ZM177.33333333333334 269.3333333333333H178.66666666666666V270.6666666666667H177.33333333333334ZM174.66666666666666 270.6666666666667H177.33333333333334V272.0H176.0V273.3333333333333H173.33333333333334V272.0H174.66666666666666ZM166.66666666666666 272.0H169.33333333333334V273.3333333333333H166.66666666666666ZM177.33333333333334 272.0H178.66666666666666V274.6666666666667H176.0V273.3333333333333H177.33333333333334ZM164.0 273.3333333333333H166.66666666666666V274.6666666666667H164.0ZM169.33333333333334 273.3333333333333H173.33333333333334V274.6666666666667H169.33333333333334Z" aria-label="局域网 + 在线"/><path fill="#b2be9b" d="M261.25 260.75H262.5V263.25H263.75V264.5H262.5V267.0H263.75V268.25H262.5V274.5H260.0V273.25H261.25V269.5H260.0V268.25H261.25V264.5H260.0V263.25H261.25ZM268.75 260.75H270.0V262.0H273.75V264.5H272.5V263.25H266.25V264.5H265.0V262.0H268.75ZM268.75 264.5H270.0V267.0H273.75V268.25H272.5V270.75H271.25V268.25H268.75V269.5H267.5V268.25H265.0V267.0H268.75ZM266.25 269.5H267.5V270.75H266.25ZM267.5 270.75H268.75V272.0H267.5ZM270.0 270.75H271.25V273.25H268.75V272.0H270.0ZM265.0 273.25H268.75V274.5H265.0ZM271.25 273.25H273.75V274.5H271.25ZM282.5 262.0H288.75V263.25H283.75V265.75H287.5V267.0H283.75V270.75H288.75V272.0H282.5ZM290.0 264.5H291.25V265.75H292.5V267.0H291.25V272.0H290.0ZM292.5 264.5H295.0V265.75H292.5ZM295.0 265.75H296.25V272.0H295.0ZM300.0 262.0H301.25V264.5H303.75V265.75H301.25V270.75H300.0V265.75H297.5V264.5H300.0ZM301.25 270.75H303.75V272.0H301.25ZM306.25 264.5H310.0V265.75H306.25ZM305.0 265.75H306.25V267.0H310.0V265.75H311.25V268.25H306.25V270.75H305.0ZM310.0 269.5H311.25V270.75H310.0ZM306.25 270.75H310.0V272.0H306.25ZM312.5 264.5H313.75V265.75H315.0V267.0H313.75V272.0H312.5ZM315.0 264.5H317.5V265.75H315.0ZM317.5 265.75H318.75V267.0H317.5ZM327.5 260.75H341.25V262.0H338.75V267.0H341.25V268.25H338.75V274.5H337.5V268.25H331.25V270.75H330.0V268.25H327.5V267.0H330.0V262.0H327.5ZM331.25 262.0V267.0H337.5V262.0ZM328.75 270.75H330.0V273.25H328.75ZM327.5 273.25H328.75V274.5H327.5ZM342.5 260.75H347.5V262.0H346.25V273.25H348.75V274.5H345.0V272.0H343.75V273.25H342.5ZM345.0 262.0H343.75V263.25H345.0ZM350.0 260.75H351.25V262.0H350.0ZM347.5 262.0H350.0V263.25H348.75V269.5H350.0V263.25H351.25V272.0H350.0V270.75H348.75V272.0H347.5ZM352.5 262.0H356.25V272.0H353.75V274.5H352.5ZM355.0 263.25H353.75V270.75H355.0ZM345.0 264.5H343.75V267.0H345.0ZM345.0 268.25H343.75V270.75H345.0ZM348.75 272.0H350.0V273.25H348.75ZM360.0 269.5H362.5V270.75H360.0ZM358.75 270.75H360.0V273.25H358.75ZM362.5 270.75H363.75V273.25H362.5ZM360.0 273.25H362.5V274.5H360.0Z" aria-label="按 Enter 开聊。"/><path fill="#f7edcf" d="M771.3333333333334 169.75H772.9166666666666V172.91666666666666H776.0833333333334V187.16666666666666H772.9166666666666V185.58333333333334H774.5V174.5H772.9166666666666V185.58333333333334H771.3333333333334V174.5H769.75V184.0H765.0V171.33333333333334H769.75V172.91666666666666H771.3333333333334ZM768.1666666666666 172.91666666666666H766.5833333333334V182.41666666666666H768.1666666666666ZM777.6666666666666 171.33333333333334H782.4166666666666V187.16666666666666H777.6666666666666ZM780.8333333333334 172.91666666666666H779.25V185.58333333333334H780.8333333333334ZM769.75 185.58333333333334H771.3333333333334V187.16666666666666H769.75ZM793.5 169.75H795.0833333333334V184.0H793.5V185.58333333333334H791.9166666666666V184.0H790.3333333333334V182.41666666666666H793.5V179.25H790.3333333333334V177.66666666666666H793.5V174.5H790.3333333333334V172.91666666666666H793.5ZM796.6666666666666 169.75H798.25V172.91666666666666H801.4166666666666V174.5H798.25V177.66666666666666H801.4166666666666V179.25H798.25V182.41666666666666H801.4166666666666V184.0H798.25V187.16666666666666H796.6666666666666ZM784.0 171.33333333333334H788.75V184.0H784.0ZM787.1666666666666 172.91666666666666H785.5833333333334V182.41666666666666H787.1666666666666ZM790.3333333333334 185.58333333333334H791.9166666666666V187.16666666666666H790.3333333333334Z" aria-label="咖啡"/><path fill="#3c594b" d="M954.0 170.5H955.5V173.5H954.0ZM957.0 170.5H958.5V172.0H967.5V176.5H966.0V173.5H963.0V187.0H960.0V185.5H961.5V173.5H958.5V175.0H957.0ZM952.5 173.5H954.0V187.0H952.5V178.0H951.0V176.5H952.5ZM955.5 175.0H957.0V176.5H955.5ZM958.5 178.0H960.0V181.0H958.5ZM964.5 178.0H966.0V181.0H964.5ZM957.0 181.0H958.5V182.5H957.0ZM966.0 181.0H967.5V184.0H966.0ZM955.5 182.5H957.0V184.0H955.5ZM972.0 170.5H973.5V173.5H975.0V178.0H979.5V175.0H981.0V178.0H985.5V179.5H981.0V187.0H976.5V185.5H979.5V179.5H975.0V182.5H973.5V175.0H972.0V179.5H970.5V175.0H969.0V173.5H972.0ZM976.5 170.5H984.0V173.5H982.5V172.0H976.5ZM981.0 173.5H982.5V175.0H981.0ZM969.0 179.5H970.5V181.0H969.0ZM970.5 181.0H972.0V182.5H970.5ZM972.0 182.5H973.5V184.0H972.0ZM970.5 184.0H972.0V185.5H970.5ZM973.5 184.0H975.0V185.5H973.5ZM969.0 185.5H970.5V187.0H969.0ZM994.5 172.0H996.0V173.5H997.5V178.0H996.0V182.5H994.5V178.0H993.0V173.5H994.5ZM994.5 184.0H996.0V185.5H994.5Z" aria-label="你好！"/></g></svg>